<?xml version="1.0" encoding="iso-8859-1"?>
<!-- Generator: Adobe Illustrator 19.0.0, SVG Export Plug-In . SVG Version: 6.00 Build 0)  -->
<svg version="1.1" id="Layer_1" xmlns="http://www.w3.org/2000/svg" xmlns:xlink="http://www.w3.org/1999/xlink" x="0px" y="0px"
	 viewBox="0 0 480 480" style="enable-background:new 0 0 480 480;" xml:space="preserve">
<rect x="8" y="8" style="fill:#F5B945;" width="128" height="464"/>
<polygon style="fill:#F7C76A;" points="216,456 136,472 136,8 216,24 "/>
<circle style="fill:#FFFFFF;" cx="72.72" cy="385.76" r="36.248"/>
<rect x="8" y="104" style="fill:#F9D288;" width="128" height="200"/>
<path style="fill:#FFFFFF;" d="M88,272H56c-8.84,0-16-7.16-16-16l0,0c0-8.84,7.16-16,16-16h32c8.84,0,16,7.16,16,16l0,0
	C104,264.84,96.84,272,88,272z"/>
<rect x="216" y="8" style="fill:#6FA0E3;" width="128" height="464"/>
<circle style="fill:#FFFFFF;" cx="280.72" cy="385.76" r="36.248"/>
<rect x="216" y="104" style="fill:#A3C2ED;" width="128" height="200"/>
<path style="fill:#FFFFFF;" d="M296,272h-32c-8.84,0-16-7.16-16-16l0,0c0-8.84,7.16-16,16-16h32c8.84,0,16,7.16,16,16l0,0
	C312,264.84,304.84,272,296,272z"/>
<polygon style="fill:#8CB3E9;" points="472,432 344,464 344,0 472,32 "/>
<polygon style="fill:#A3C2ED;" points="472,288 344,304 344,104 472,120 "/>
<g>
	<path style="fill:#4D4D4D;" d="M72.752,341.496c-24.4,0-44.248,19.848-44.248,44.248c0,24.408,19.848,44.256,44.248,44.256
		S117,410.152,117,385.744C117,361.344,97.152,341.496,72.752,341.496z M72.752,414c-15.576,0-28.248-12.68-28.248-28.256
		s12.672-28.248,28.248-28.248S101,370.168,101,385.744S88.336,414,72.752,414z"/>
	<path style="fill:#4D4D4D;" d="M104,136H40c-4.416,0-8,3.576-8,8s3.584,8,8,8h64c4.416,0,8-3.576,8-8S108.416,136,104,136z"/>
	<path style="fill:#4D4D4D;" d="M104,168H40c-4.416,0-8,3.576-8,8s3.584,8,8,8h64c4.416,0,8-3.576,8-8S108.416,168,104,168z"/>
	<path style="fill:#4D4D4D;" d="M104,200H40c-4.416,0-8,3.576-8,8s3.584,8,8,8h64c4.416,0,8-3.576,8-8S108.416,200,104,200z"/>
	<path style="fill:#4D4D4D;" d="M88,232H56c-13.232,0-24,10.768-24,24s10.768,24,24,24h32c13.232,0,24-10.768,24-24
		S101.232,232,88,232z M88,264H56c-4.408,0-8-3.584-8-8s3.592-8,8-8h32c4.408,0,8,3.584,8,8S92.408,264,88,264z"/>
	<path style="fill:#4D4D4D;" d="M280.752,341.496c-24.4,0-44.248,19.848-44.248,44.248c0,24.408,19.848,44.256,44.248,44.256
		S325,410.152,325,385.744C325,361.344,305.152,341.496,280.752,341.496z M280.752,414c-15.576,0-28.248-12.68-28.248-28.256
		s12.672-28.248,28.248-28.248S309,370.168,309,385.744S296.336,414,280.752,414z"/>
	<path style="fill:#4D4D4D;" d="M312,136h-64c-4.416,0-8,3.576-8,8s3.584,8,8,8h64c4.416,0,8-3.576,8-8S316.416,136,312,136z"/>
	<path style="fill:#4D4D4D;" d="M312,168h-64c-4.416,0-8,3.576-8,8s3.584,8,8,8h64c4.416,0,8-3.576,8-8S316.416,168,312,168z"/>
	<path style="fill:#4D4D4D;" d="M312,200h-64c-4.416,0-8,3.576-8,8s3.584,8,8,8h64c4.416,0,8-3.576,8-8S316.416,200,312,200z"/>
	<path style="fill:#4D4D4D;" d="M296,232h-32c-13.232,0-24,10.768-24,24s10.768,24,24,24h32c13.232,0,24-10.768,24-24
		S309.232,232,296,232z M296,264h-32c-4.408,0-8-3.584-8-8s3.592-8,8-8h32c4.408,0,8,3.584,8,8S300.408,264,296,264z"/>
	<path style="fill:#4D4D4D;" d="M473.944,32.24l-128-32c-0.272-0.064-0.544,0.024-0.816-0.016C344.744,0.168,344.4,0,344,0H216
		c-4.416,0-8,3.576-8,8v6.24L137.568,0.16c-0.24-0.048-0.472,0.04-0.712,0.016C136.56,0.144,136.304,0,136,0H8C3.584,0,0,3.576,0,8
		v464c0,4.424,3.584,8,8,8h128c0.52,0,1.048-0.056,1.568-0.16L208,465.76V472c0,4.424,3.584,8,8,8h128
		c0.648,0,1.304-0.08,1.944-0.24l128-32c3.56-0.896,6.056-4.088,6.056-7.76V40C480,36.328,477.504,33.136,473.944,32.24z M224,112
		h112v184H224V112z M352,113.064l112,14v153.872l-112,14V113.064z M464,110.936l-112-14V18.248l112,28V110.936z M224,16h112v80H224
		V24V16z M16,112h112v184H16V112z M128,16v80H16V16H128z M16,312h112v152H16V312z M144,462.24V17.76l64,12.8v418.888L144,462.24z
		 M224,456V312h112v152H224V456z M352,461.752V311.064l112-14v136.688L352,461.752z"/>
</g>
<g>
</g>
<g>
</g>
<g>
</g>
<g>
</g>
<g>
</g>
<g>
</g>
<g>
</g>
<g>
</g>
<g>
</g>
<g>
</g>
<g>
</g>
<g>
</g>
<g>
</g>
<g>
</g>
<g>
</g>
</svg>
