<svg height="512" viewBox="0 0 60 60" width="512" xmlns="http://www.w3.org/2000/svg"><g id="Page-1" fill="none" fill-rule="evenodd"><g id="006---Edit-Folder" fill-rule="nonzero" transform="translate(-1)"><path id="Shape" d="m54 11v3h-52v-9c0-2.209139 1.790861-4 4-4h22c2.209139 0 4 1.790861 4 4v2h18c2.209139 0 4 1.790861 4 4z" fill="#a4c2f7"/><path id="Shape" d="m29 5v2h3v-2c0-2.209139-1.790861-4-4-4h-3c2.209139 0 4 1.790861 4 4z" fill="#7facfa"/><path id="Shape" d="m50 7h-3c2.209139 0 4 1.790861 4 4v3h3v-3c0-2.209139-1.790861-4-4-4z" fill="#7facfa"/><path id="Shape" d="m60 20v29c0 3.3137085-2.6862915 6-6 6h-46c-3.3137085 0-6-2.6862915-6-6v-35h52c3.3137085 0 6 2.6862915 6 6z" fill="#e8edfc"/><path id="Shape" d="m54 14h-3c3.3137085 0 6 2.6862915 6 6v29c0 3.3137085-2.6862915 6-6 6h3c3.3137085 0 6-2.6862915 6-6v-29c0-3.3137085-2.6862915-6-6-6z" fill="#cad9fc"/><path id="Shape" d="m29.58 31.43-7.78 7.77-3.54 3.54-9.18 9.19h-.01l-3.53-3.54 20.5-20.5z" fill="#e8edfc"/><path id="Shape" d="m29.58 31.43-7.78 7.77-3.54 3.54-9.18 9.19h-.01l-3.53-3.54 20.5-20.5z" fill="#e8edfc"/><path id="Shape" d="m33.11 34.96-20.5 20.5-3.53-3.53 9.18-9.19 3.54-3.54 7.78-7.77z" fill="#e8edfc"/><path id="Shape" d="m12.61 55.46-9.26 3.47c-.36536396.1409668-.77948486.0533124-1.05639862-.2236014-.27691376-.2769137-.36456818-.6910346-.22360138-1.0563986l3.47-9.26 3.53 3.54h.01z" fill="#e8edfc"/><path id="Shape" d="m9.08 51.93h-.01l-3.53-3.54-.819 2.187 1.349 1.353h.01l.235.235c.72342694.7212954 1.03008527 1.7611474.81381185 2.7595659-.21627343.9984185-.92574938 1.8181596-1.88281185 2.1754341l-3.195 1.2c.07880706.2633026.26393631.4817629.5107429.6026982.24680659.1209352.53288902.1333686.7892571.0343018l9.26-3.47z" fill="#cad9fc"/><path id="Shape" d="m35.94 32.13-2.83 2.83-3.53-3.53-3.54-3.54 2.83-2.83z" fill="#a4c2f7"/><path id="Shape" d="m38.06 30.01-2.12 2.12-7.07-7.07 2.12-2.12c1.1712702-1.1698135 3.0687298-1.1698135 4.24 0l2.83 2.83c1.1698135 1.1712702 1.1698135 3.0687298 0 4.24z" fill="#e8edfc"/><path id="Shape" d="m38.06 25.77-2.83-2.83c-.9619614-.9575732-2.4479988-1.1476382-3.62-.463.2259048.1267409.4343269.2823852.62.463l2.83 2.83c1.1698135 1.1712702 1.1698135 3.0687298 0 4.24l-.62.62 1.5 1.5 2.12-2.12c1.1698135-1.1712702 1.1698135-3.0687298 0-4.24z" fill="#cad9fc"/><path id="Shape" d="m2.051 58.293c.08240964.2514919.25717082.462349.489.59.341.18.384.227 2.521-.571 0-.007-.008-.012-.01-.019-.14-.451-.1-.336 1.682-5.08-1.1108035-1.1207423-1.73370494-2.6350434-1.733-4.213v-44c0-2.209139 1.790861-4 4-4h-3c-2.209139 0-4 1.790861-4 4v44c-.00070494 1.5779566.6221965 3.0922577 1.733 4.213-1.778 4.744-1.822 4.629-1.682 5.08z" fill="#fff"/><path id="Rectangle-path" d="m1 5h2v8h-2z" fill="#fff"/><g fill="#428dff"><path id="Shape" d="m55 13.08v-2.08c-.0033061-2.76005315-2.2399468-4.99669388-5-5h-17v-1c-.0033061-2.76005315-2.2399468-4.99669388-5-5h-22c-2.76005315.00330612-4.99669388 2.23994685-5 5 0 .35726559.19059892.68739261.5.8660254.30940108.1786328.69059892.1786328 1 0 .30940108-.17863279.5-.50875981.5-.8660254 0-1.65685425 1.34314575-3 3-3h22c1.6568542 0 3 1.34314575 3 3v2c0 .55228475.4477153 1 1 1h18c1.6568542 0 3 1.34314575 3 3v2h-28c-.5522847 0-1 .4477153-1 1s.4477153 1 1 1h29c2.7600532.0033061 4.9966939 2.2399468 5 5v29c-.0033061 2.7600532-2.2399468 4.9966939-5 5h-35c-.5522847 0-1 .4477153-1 1s.4477153 1 1 1h35c3.8641657-.0044086 6.9955914-3.1358343 7-7v-29c-.0066473-3.4756199-2.5603905-6.420937-6-6.92z"/><circle id="Oval" cx="2" cy="9" r="1"/><path id="Shape" d="m2 48c.55228475 0 1-.4477153 1-1v-34c0-.5522847-.44771525-1-1-1s-1 .4477153-1 1v34c0 .5522847.44771525 1 1 1z"/><path id="Shape" d="m20 15c.5522847 0 1-.4477153 1-1s-.4477153-1-1-1h-4c-.5522847 0-1 .4477153-1 1s.4477153 1 1 1z"/><path id="Shape" d="m4.606 48.044h-.006l-3.47 9.256c-.28132195.7340012-.10155816 1.5649181.458 2.117.37221238.3733775.87778774.5831643 1.405.583.24317886-.0006131.48429513-.0446371.712-.13l9.254-3.47c.133732-.0485846.2554751-.1253134.357-.225l20.504-20.51 2.828-2.829 2.123-2.121c1.5582242-1.563366 1.5582242-4.092634 0-5.656l-2.83-2.829c-1.5835581-1.5085715-4.0724419-1.5085715-5.656 0l-2.121 2.121-2.829 2.829-20.506 20.506c-.09928513.1018519-.1753587.2239789-.223.358zm-1.606 9.956 2.924-7.8 2.437 2.437 2.439 2.436zm28.7-34.356c.7915755-.7547943 2.0364245-.7547943 2.828 0l2.829 2.829c.7807639.7809997.7807639 2.0470003 0 2.828l-1.415 1.414-2.828-2.828-2.828-2.829zm-2.828 2.828 2.828 2.828 2.828 2.828-1.414 1.415-2.827-2.827-2.828-2.827zm-2.83 2.828 2.122 2.122-7.071 7.071c-.2599566.2510745-.3642126.6228779-.2726972.9725073.0915155.3496295.3645604.6226744.7141899.7141899.3496294.0915154.7214328-.0127406.9725073-.2726972l7.071-7.071 2.122 2.122-19.093 19.092-2.122-2.122 8.486-8.485c.3789722-.3923789.3735524-1.0160848-.0121814-1.4018186s-1.0094397-.3911536-1.4018186-.0121814l-8.486 8.485-2.121-2.121z"/></g></g></g></svg>